<?xml version="1.0" encoding="utf-8"?>
<!-- Generator: Adobe Illustrator 15.0.0, SVG Export Plug-In . SVG Version: 6.00 Build 0)  -->
<!DOCTYPE svg PUBLIC "-//W3C//DTD SVG 1.1//EN" "http://www.w3.org/Graphics/SVG/1.1/DTD/svg11.dtd">
<svg version="1.1" id="Layer_1" xmlns="http://www.w3.org/2000/svg" xmlns:xlink="http://www.w3.org/1999/xlink" x="0px" y="0px"
	 width="559.387px" height="559.387px" viewBox="0 0 559.387 559.387" enable-background="new 0 0 559.387 559.387"
	 xml:space="preserve">
<g>
	<path fill="#964E99" d="M112.904,125.498h23.872v110.496c-12.246,2.325-21.237,3.255-31.002,3.255
		c-29.142,0-44.333-13.174-44.333-38.443c0-24.336,16.122-40.147,41.078-40.147c3.875,0,6.82,0.311,10.386,1.239L112.904,125.498
		L112.904,125.498z M112.904,181.117c-2.79-0.929-5.115-1.239-8.06-1.239c-12.091,0-19.067,7.441-19.067,20.46
		c0,12.713,6.666,19.688,18.912,19.688c2.634,0,4.805-0.155,8.215-0.618V181.117z"/>
	<path fill="#964E99" d="M174.753,162.361v55.341c0,19.065-1.396,28.21-5.58,36.117c-3.877,7.596-8.993,12.399-19.532,17.67
		l-22.167-10.541c10.54-4.96,15.656-9.297,18.911-15.966c3.411-6.819,4.497-14.727,4.497-35.498v-47.123H174.753z M150.882,125.624
		h23.871v24.493h-23.871V125.624z"/>
	<path fill="#964E99" d="M189.171,167.788c10.542-4.961,20.617-7.13,31.623-7.13c12.246,0,20.306,3.255,23.872,9.611
		c2.014,3.564,2.634,8.214,2.634,18.137v48.517c-10.697,1.552-24.182,2.636-34.102,2.636c-19.996,0-28.988-6.977-28.988-22.476
		c0-16.744,11.936-24.493,41.234-26.975v-5.271c0-4.339-2.17-5.888-8.216-5.888c-8.835,0-18.756,2.479-28.058,7.285L189.171,167.788
		L189.171,167.788z M226.529,205.766c-15.812,1.552-20.927,4.031-20.927,10.231c0,4.65,2.946,6.821,9.456,6.821
		c3.566,0,6.82-0.311,11.471-1.084V205.766z"/>
	<path fill="#964E99" d="M258.928,166.083c14.104-3.722,25.73-5.426,37.512-5.426c12.246,0,21.082,2.788,26.354,8.216
		c4.96,5.113,6.509,10.693,6.509,22.632v46.813h-23.871v-45.884c0-9.145-3.101-12.557-11.625-12.557
		c-3.255,0-6.2,0.311-11.007,1.706v56.734h-23.871L258.928,166.083L258.928,166.083z"/>
	<path fill="#964E99" d="M338.582,251.339c8.372,4.339,16.742,6.354,25.577,6.354c15.655,0,22.321-6.354,22.321-21.546v-0.467
		c-4.65,2.326-9.301,3.257-15.5,3.257c-20.927,0-34.26-13.797-34.26-35.652c0-27.128,19.688-42.473,54.563-42.473
		c10.232,0,19.688,1.084,31.159,3.407l-8.174,17.222c-6.356-1.241-0.509-0.167-5.312-0.632v2.48l0.31,10.074l0.154,13.022
		c0.154,3.253,0.154,6.51,0.311,9.764v6.512c0,20.462-1.705,30.073-6.82,37.977C395.471,272.266,382.604,278,364.313,278
		c-9.301,0-17.36-1.396-25.732-4.651L338.582,251.339L338.582,251.339z M386.017,180.033h-0.774h-1.706
		c-4.648-0.155-10.073,1.084-13.796,3.409c-5.733,3.257-8.681,9.146-8.681,17.518c0,11.937,5.892,18.756,16.432,18.756
		c3.255,0,5.892-0.62,8.99-1.55v-1.705v-6.51c0-2.79-0.154-5.892-0.154-9.146l-0.153-11.006l-0.156-7.905L386.017,180.033
		L386.017,180.033z"/>
	<path fill="#964E99" d="M459.503,160.349c23.87,0,38.442,15.037,38.442,39.371c0,24.957-15.189,40.613-39.373,40.613
		c-23.873,0-38.599-15.036-38.599-39.216C419.975,176.002,435.166,160.349,459.503,160.349 M459.035,221.111
		c9.147,0,14.573-7.596,14.573-20.773c0-13.019-5.271-20.771-14.415-20.771c-9.457,0-14.884,7.598-14.884,20.771
		C444.311,213.517,449.736,221.111,459.035,221.111"/>
	<path fill="#964E99" d="M174.08,478.435c-2.988,0.332-5.977,0.11-8.965-0.664c-2.988-0.774-5.644-1.908-7.969-3.402
		c-2.324-1.494-4.15-3.321-5.478-5.479s-1.772-4.456-1.328-6.889c2.213,0,4.176,0.441,5.893,1.328
		c1.715,0.884,3.43,1.881,5.147,2.988c1.715,1.104,3.512,2.102,5.395,2.987c1.881,0.885,4.151,1.328,6.807,1.328
		c6.418,0,11.813-1.384,16.186-4.15c4.372-2.768,7.886-6.42,10.542-10.956c2.657-4.539,4.566-9.657,5.728-15.356
		c1.162-5.702,1.743-11.539,1.743-17.515c0-1.552-0.083-3.984-0.249-7.306c-0.166-3.319-0.36-7.055-0.581-11.206
		c-0.223-4.149-0.472-8.521-0.747-13.114c-0.277-4.593-0.555-8.966-0.83-13.115c-0.277-4.151-0.555-7.886-0.83-11.206
		c-0.278-3.321-0.527-5.753-0.747-7.305c-0.887,2.216-1.992,4.926-3.321,8.135c-1.328,3.211-2.85,6.586-4.565,10.127
		c-1.717,3.543-3.652,7.055-5.811,10.542c-2.158,3.486-4.565,6.614-7.221,9.38c-2.656,2.767-5.562,5.008-8.716,6.723
		c-3.154,1.715-6.503,2.573-10.044,2.573c-1.883,0-3.349-0.94-4.399-2.822c-1.053-1.881-1.855-4.039-2.408-6.474
		c-0.554-2.434-0.913-4.841-1.079-7.222c-0.166-2.379-0.249-4.068-0.249-5.064c-0.554-7.082-0.554-14.083,0-21.001
		c0.553-6.915,1.687-13.389,3.404-19.423c1.714-6.032,3.984-11.427,6.806-16.188c2.822-4.757,6.28-8.491,10.376-11.205
		c4.094-2.712,8.771-4.26,14.029-4.648c5.255-0.387,11.149,0.804,17.68,3.569c1.77-0.222,2.96,0.774,3.57,2.987
		c0.607,2.217,0.884,4.927,0.83,8.136c-0.057,3.212-0.249,6.586-0.581,10.127c-0.332,3.544-0.555,6.531-0.665,8.965
		c0,5.756,0.221,11.512,0.665,17.265c0.441,5.756,0.967,11.484,1.577,17.184c0.607,5.7,1.133,11.399,1.577,17.1
		c0.441,5.699,0.664,11.426,0.664,17.182c0,6.642-0.664,13.641-1.992,21.001s-3.626,14.166-6.89,20.42
		c-3.266,6.252-7.582,11.428-12.949,15.523C188.716,476.386,182.049,478.435,174.08,478.435 M163.953,381.317
		c0,1.106,0.026,2.464,0.083,4.066c0.055,1.606,0.275,3.155,0.664,4.649c0.387,1.494,0.996,2.767,1.826,3.817
		c0.83,1.054,2.019,1.577,3.57,1.577c3.097,0,5.976-1.411,8.632-4.232c2.657-2.822,5.119-6.418,7.388-10.791
		c2.268-4.371,4.316-9.215,6.143-14.526c1.826-5.313,3.375-10.514,4.648-15.606c1.272-5.089,2.241-9.712,2.905-13.861
		c0.664-4.151,0.996-7.223,0.996-9.214c-6.751-2.434-12.507-2.379-17.265,0.166c-4.76,2.548-8.607,6.558-11.538,12.035
		c-2.934,5.479-5.064,11.953-6.392,19.425C164.285,366.292,163.73,373.792,163.953,381.317"/>
	<path fill="#964E99" d="M230.027,297.313c-0.775,0-1.66-0.274-2.656-0.83c-0.996-0.554-1.854-1.245-2.573-2.075
		c-0.721-0.83-1.219-1.715-1.494-2.657c-0.276-0.938-0.083-1.743,0.581-2.407c0.441-1.327,1.328-2.545,2.656-3.651
		c1.328-1.105,2.711-1.853,4.15-2.241c1.438-0.387,2.683-0.332,3.736,0.166c1.051,0.498,1.577,1.743,1.577,3.735
		c0,0.995-0.083,2.074-0.249,3.236s-0.498,2.242-0.996,3.238s-1.136,1.826-1.909,2.49
		C232.074,296.981,231.133,297.313,230.027,297.313 M237,404.227c-0.555,0-1.273-0.111-2.158-0.332
		c-0.887-0.224-1.772-0.556-2.656-0.996c-0.887-0.442-1.634-0.969-2.242-1.577c-0.609-0.608-0.913-1.3-0.913-2.075l-0.166-79.854
		c0-0.772,0.304-1.467,0.913-2.075c0.608-0.607,1.355-1.134,2.242-1.577c0.884-0.441,1.769-0.773,2.656-0.996
		c0.885-0.221,1.603-0.332,2.158-0.332L237,404.227z"/>
	<path fill="#964E99" d="M248.787,336.16c-0.332-1.437-0.775-3.263-1.328-5.479c-0.555-2.212-1.053-4.482-1.494-6.806
		c-0.444-2.324-0.664-4.537-0.664-6.642c0-2.1,0.332-3.79,0.996-5.062c0.664-1.271,1.826-1.992,3.486-2.158
		c1.66-0.166,3.984,0.581,6.973,2.241c0.22,1.106,0.524,2.963,0.913,5.561c0.387,2.603,0.802,5.37,1.245,8.301
		c0.441,2.935,0.83,5.702,1.162,8.302c0.332,2.601,0.498,4.457,0.498,5.561c1.992-4.424,4.537-8.632,7.637-12.617
		c3.097-3.983,6.695-7.471,10.791-10.459c4.094-2.987,8.576-5.367,13.447-7.138c4.869-1.77,10.069-2.657,15.605-2.657l-1.661,9.463
		c-7.084,1.221-13.695,4.208-19.838,8.965c-6.143,4.761-11.263,10.902-15.357,18.429c-4.096,7.527-6.835,16.327-8.218,26.396
		c-1.384,10.072-0.858,21.03,1.577,32.871l-10.459,2.159c-0.111-0.112-0.277-1.468-0.498-4.068
		c-0.222-2.599-0.498-5.947-0.83-10.044c-0.332-4.094-0.664-8.687-0.996-13.778c-0.332-5.091-0.664-10.183-0.996-15.274
		c-0.332-5.088-0.692-9.932-1.079-14.526C249.311,343.107,249.008,339.26,248.787,336.16"/>
	<path fill="#964E99" d="M315.525,259.959l9.297-1.328c0.441,5.868,0.855,12.783,1.245,20.752
		c0.387,7.969,0.719,16.381,0.996,25.234c0.274,8.857,0.524,17.848,0.747,26.979c0.221,9.131,0.415,17.792,0.581,25.98
		c0.166,8.192,0.358,15.579,0.581,22.163c0.221,6.586,0.497,11.762,0.829,15.523c0,1.551-0.276,3.016-0.829,4.398
		c-0.555,1.386-1.219,2.382-1.992,2.988c-0.775,0.608-1.66,0.691-2.656,0.249c-0.996-0.441-1.883-1.66-2.656-3.652L315.525,259.959z
		"/>
	<path fill="#964E99" d="M337.605,371.688c0.885-1.882,1.936-3.071,3.154-3.569c1.217-0.498,2.822-0.636,4.814-0.415
		c3.984,3.652,8.052,7.084,12.202,10.293c4.149,3.211,8.493,5.976,13.032,8.3c4.537,2.325,9.297,4.179,14.276,5.562
		c4.981,1.385,10.293,2.074,15.938,2.074h3.817c1.438,0,2.74-0.191,3.902-0.581c1.162-0.387,2.158-1.021,2.988-1.908
		c0.83-0.886,1.245-2.158,1.245-3.818c-0.443-3.321-2.187-6.226-5.229-8.716c-3.045-2.491-6.724-4.869-11.04-7.14
		c-4.316-2.268-8.911-4.592-13.779-6.973c-4.871-2.379-9.298-5.089-13.281-8.134c-3.984-3.043-7.195-6.53-9.629-10.459
		c-2.436-3.927-3.377-8.659-2.822-14.195c0-3.096,0.996-5.865,2.988-8.301c1.991-2.432,4.426-4.507,7.305-6.225
		c2.877-1.716,5.893-3.043,9.048-3.984c3.154-0.939,5.948-1.412,8.383-1.412c4.759,0,9.602,0.693,14.527,2.076
		c4.924,1.385,9.323,3.403,13.198,6.059l-4.482,6.31c-1.993-1.66-4.456-2.906-7.388-3.736c-2.935-0.83-5.95-1.27-9.048-1.328
		c-3.101-0.054-6.143,0.195-9.131,0.747c-2.988,0.556-5.618,1.411-7.887,2.574c-2.269,1.162-3.983,2.547-5.146,4.15
		c-1.162,1.604-1.468,3.349-0.913,5.229c0,5.205,1.383,9.438,4.149,12.701c2.767,3.265,6.253,6.088,10.46,8.466
		c4.204,2.382,8.741,4.511,13.613,6.392c4.869,1.885,9.406,4.014,13.613,6.393c4.205,2.381,7.691,5.203,10.459,8.466
		c2.765,3.266,4.15,7.445,4.15,12.535c0,3.211-0.526,5.755-1.577,7.636c-1.054,1.883-2.436,3.321-4.15,4.317
		c-1.717,0.996-3.764,1.66-6.143,1.992c-2.381,0.332-4.897,0.498-7.555,0.498c-5.976,0-12.175-0.773-18.593-2.324
		c-6.42-1.549-12.674-3.707-18.76-6.476c-6.088-2.765-11.787-6.113-17.1-10.044C345.906,380.792,341.367,376.448,337.605,371.688"/>
</g>
</svg>
